<?xml version="1.0" encoding="UTF-8"?>
<svg width="60px" height="60px" viewBox="0 0 60 60" version="1.1" xmlns="http://www.w3.org/2000/svg" xmlns:xlink="http://www.w3.org/1999/xlink">
    <!-- Generator: sketchtool 63.1 (101010) - https://sketch.com -->
    <title>AEEBF157-94D1-445C-9DD2-1AD703565DD1</title>
    <desc>Created with sketchtool.</desc>
    <g id="Dashboard" stroke="none" stroke-width="1" fill="none" fill-rule="evenodd">
        <g id="Dashboard-All-Devices" transform="translate(0.000000, -308.000000)">
            <g id="menu" transform="translate(0.000000, 61.000000)">
                <g id="users-mngt-copy">
                    <g transform="translate(0.000000, 247.000000)">
                        <g id="users-mngt">
                            <g id="users">
                                <rect id="Rectangle" fill-opacity="0.01" fill="#4F5758" x="0" y="0" width="60" height="60"></rect>
                                <path d="M33.9396985,21 C34.937206,21 35.7487437,21.7885547 35.7487437,22.7578125 L35.7487437,22.7578125 L35.7487437,23.0096875 C37.0481608,23.3403125 38,24.4939453 38,25.84375 L38,25.84375 L38,38.0703125 C38,39.6857422 36.6474372,41 34.9849246,41 L34.9849246,41 L25.0150754,41 C23.3525628,41 22,39.6857422 22,38.0703125 L22,38.0703125 L22,25.84375 C22,24.4939453 22.9518392,23.3403125 24.2512563,23.0096875 L24.2512563,23.0096875 L24.2512563,22.7578125 C24.2512563,21.7885547 25.062794,21 26.0603015,21 L26.0603015,21 Z M35.7474975,24.2501953 C35.7216884,25.1977344 34.9209648,25.9609375 33.9396985,25.9609375 L33.9396985,25.9609375 L26.0603015,25.9609375 C25.0790352,25.9609375 24.2783116,25.1977344 24.2525025,24.2501953 C23.6330854,24.5312109 23.2060302,25.1433203 23.2060302,25.84375 L23.2060302,25.84375 L23.2060302,38.0703125 C23.2060302,39.0395703 24.0175678,39.828125 25.0150754,39.828125 L25.0150754,39.828125 L34.9849246,39.828125 C35.9824322,39.828125 36.7939698,39.0395703 36.7939698,38.0703125 L36.7939698,38.0703125 L36.7939698,25.84375 C36.7939698,25.1433203 36.3669146,24.5312109 35.7474975,24.2501953 Z M24.8253668,33.6442969 C25.0963618,33.4562109 25.473005,33.5171875 25.6665729,33.7805078 L25.6665729,33.7805078 L25.9798995,34.2067578 L26.2932261,33.7805078 C26.4868342,33.5172266 26.863397,33.45625 27.1344322,33.6442969 C27.4054271,33.8324219 27.4681809,34.1983594 27.2746131,34.4616797 L27.2746131,34.4616797 L26.7209648,35.2148438 L27.2746131,35.9680469 C27.4681809,36.2313672 27.4054271,36.5973438 27.1344322,36.7854297 C27.0281809,36.8591406 26.9057286,36.8946094 26.7844422,36.8946094 C26.5963015,36.8946094 26.4109347,36.8093359 26.2932261,36.6492188 L26.2932261,36.6492188 L25.9798995,36.2229688 L25.6665729,36.6491797 C25.5488643,36.8092578 25.3634975,36.8945703 25.1753568,36.8945703 C25.0540302,36.8945703 24.9316181,36.8591406 24.8253668,36.7853906 C24.5543719,36.5972656 24.4916181,36.2313281 24.6851859,35.9680078 L24.6851859,35.9680078 L25.2388342,35.2148438 L24.6851859,34.4616797 C24.4916181,34.1983594 24.5543719,33.8323828 24.8253668,33.6442969 Z M34.697002,34.6781641 C35.1002305,34.6781641 35.4271357,34.9405078 35.4271357,35.2641016 C35.4271357,35.5876953 35.1002305,35.8500391 34.697002,35.8500391 L34.697002,35.8500391 L30.4135508,35.8500391 C30.0103223,35.8500391 29.6834171,35.5876953 29.6834171,35.2641016 C29.6834171,34.9405078 30.0103223,34.6781641 30.4135508,34.6781641 L30.4135508,34.6781641 Z M26.9643015,29.3744141 C27.1777688,29.1260156 27.5580302,29.0928516 27.8136683,29.3002344 C28.0692663,29.5076562 28.1034372,29.8771875 27.8900503,30.125625 L27.8900503,30.125625 L26.2820101,31.9967187 C26.1667136,32.1308594 25.9967035,32.2070703 25.8192161,32.2070703 C25.7960603,32.2070703 25.7728643,32.2057812 25.7495477,32.2031641 C25.5475779,32.1803516 25.3710553,32.0601953 25.28,31.8835937 L25.28,31.8835937 L24.6367839,30.6361719 C24.487598,30.346875 24.608,29.9948047 24.9057688,29.8498437 C25.2035377,29.7048437 25.5658291,29.821875 25.7150151,30.1112109 L25.7150151,30.1112109 L25.9460503,30.5592578 Z M34.697002,30.0996094 C35.1002305,30.0996094 35.4271357,30.3619531 35.4271357,30.6855469 C35.4271357,31.0091406 35.1002305,31.2714844 34.697002,31.2714844 L34.697002,31.2714844 L30.4135508,31.2714844 C30.0103223,31.2714844 29.6834171,31.0091406 29.6834171,30.6855469 C29.6834171,30.3619531 30.0103223,30.0996094 30.4135508,30.0996094 L30.4135508,30.0996094 Z M33.9396985,22.171875 L26.0603015,22.171875 C25.727799,22.171875 25.4572864,22.4347266 25.4572864,22.7578125 L25.4572864,22.7578125 L25.4572864,24.203125 C25.4572864,24.5262109 25.727799,24.7890625 26.0603015,24.7890625 L26.0603015,24.7890625 L33.9396985,24.7890625 C34.272201,24.7890625 34.5427136,24.5262109 34.5427136,24.203125 L34.5427136,24.203125 L34.5427136,22.7578125 C34.5427136,22.4347266 34.272201,22.171875 33.9396985,22.171875 L33.9396985,22.171875 Z" id="Combined-Shape" fill="#FFFFFF" fill-rule="nonzero"></path>
                            </g>
                        </g>
                    </g>
                </g>
            </g>
        </g>
    </g>
</svg>