<?xml version="1.0" encoding="UTF-8"?>
<svg width="30px" height="30px" viewBox="0 0 30 30" version="1.1" xmlns="http://www.w3.org/2000/svg" xmlns:xlink="http://www.w3.org/1999/xlink">
    <!-- Generator: sketchtool 63.1 (101010) - https://sketch.com -->
    <title>E65A0996-60D4-4039-9945-052F5AFEA79E</title>
    <desc>Created with sketchtool.</desc>
    <g id="Dashboard" stroke="none" stroke-width="1" fill="none" fill-rule="evenodd">
        <g id="Device-Details" transform="translate(-1363.000000, -215.000000)">
            <g id="Apps" transform="translate(782.000000, 209.000000)">
                <g id="Group-2" transform="translate(581.000000, 6.000000)">
                    <g id="button-filled-copy" fill="#6C7E81">
                        <g id="c">
                            <rect id="Rectangle" x="0" y="0" width="30" height="30" rx="15"></rect>
                        </g>
                    </g>
                    <g id="close" transform="translate(9.000000, 9.000000)" fill="#FFFFFF" fill-rule="nonzero">
                        <path d="M6.66295312,6.00004687 L11.8627266,0.80025 C12.0457969,0.617179687 12.0457969,0.320367187 11.8627266,0.137320312 C11.6796562,-0.0457265625 11.3828437,-0.04575 11.1997969,0.137320312 L5.99999414,5.33711719 L0.800226563,0.137320312 C0.61715625,-0.04575 0.32034375,-0.04575 0.137296875,0.137320312 C-0.04575,0.320390625 -0.0457734375,0.617203125 0.137296875,0.80025 L5.33707031,6.00001758 L0.137296875,11.1998203 C-0.0457734375,11.3828906 -0.0457734375,11.6797031 0.137296875,11.86275 C0.228820313,11.9542734 0.348796875,12.0000176 0.468773438,12.0000176 C0.58875,12.0000176 0.708703125,11.9542734 0.80025,11.86275 L5.99999414,6.66297656 L11.1997734,11.86275 C11.2912969,11.9542734 11.4112734,12.0000176 11.53125,12.0000176 C11.6512266,12.0000176 11.7711797,11.9542734 11.8627266,11.86275 C12.0457969,11.6796797 12.0457969,11.3828672 11.8627266,11.1998203 L6.66295312,6.00004687 Z" id="Path"></path>
                    </g>
                </g>
            </g>
        </g>
    </g>
</svg>