<?xml version="1.0" encoding="UTF-8"?>
<svg width="47px" height="47px" viewBox="0 0 47 47" version="1.1" xmlns="http://www.w3.org/2000/svg" xmlns:xlink="http://www.w3.org/1999/xlink">
    <!-- Generator: sketchtool 63.1 (101010) - https://sketch.com -->
    <title>1F4683F7-9CA1-46E0-A7C2-51CBD147EE4C</title>
    <desc>Created with sketchtool.</desc>
    <g id="Dashboard" stroke="none" stroke-width="1" fill="none" fill-rule="evenodd">
        <g id="Dashboard-All-Devices" transform="translate(-120.000000, -129.000000)" fill="#FFFFFF" fill-rule="nonzero">
            <g id="Devices" transform="translate(90.000000, 91.000000)">
                <g id="Total-devices">
                    <g id="charging-station" transform="translate(30.000000, 38.000000)">
                        <path d="M44.73,8.676 L30.26997,8.676 C29.52441,8.676 28.91997,9.28044 28.91997,10.026 L28.91997,14.364 C28.91997,19.1106 32.76162,22.94406 37.49994,22.94406 C42.24663,22.94406 46.07991,19.10169 46.07991,14.364 L46.07991,10.026 C46.07991,9.28044 45.47556,8.676 44.73,8.676 L44.73,8.676 Z" id="Path"></path>
                        <path d="M36.15003,25.56297 L36.15003,38.754 C36.15003,39.16602 35.98974,39.55311 35.69796,39.84444 C35.40681,40.13559 35.01972,40.29606 34.60806,40.29606 L28.53612,40.29606 L28.53612,42.99606 L34.60806,42.99606 C35.74107,42.99606 36.80631,42.55479 37.60668,41.75415 C38.40849,40.95342 38.85003,39.888 38.85003,38.754 L38.85003,25.56297 C38.40723,25.61598 37.95687,25.64406 37.50003,25.64406 C37.04319,25.64406 36.59274,25.61598 36.15003,25.56297 L36.15003,25.56297 Z" id="Path"></path>
                        <path d="M43.18803,1.35 C43.18803,0.60444 42.58359,0 41.83803,0 C41.09247,0 40.48803,0.60444 40.48803,1.35 L40.48803,5.976 L43.18803,5.976 L43.18803,1.35 Z" id="Path"></path>
                        <path d="M34.51203,1.35 C34.51203,0.60444 33.90759,0 33.16203,0 C32.41647,0 31.81203,0.60444 31.81203,1.35 L31.81203,5.976 L34.51203,5.976 L34.51203,1.35 Z" id="Path"></path>
                        <path d="M0,44.73 C0,45.47556 0.60444,46.08 1.35,46.08 L24.48603,46.08 C25.23159,46.08 25.83603,45.47556 25.83603,44.73 L25.83603,40.29597 L0,40.29597 L0,44.73 Z" id="Path"></path>
                        <polygon id="Path" points="8.48403 9.207 17.352 9.207 17.352 14.46003 8.48403 14.46003"></polygon>
                        <path d="M24.48603,0 L1.35,0 C0.60444,0 0,0.60444 0,1.35 L0,37.59597 L25.83603,37.59597 L25.83603,1.35 C25.83603,0.60444 25.23159,0 24.48603,0 Z M19.4508,28.50129 L10.7748,34.28532 C10.36044,34.56162 9.82773,34.58709 9.38898,34.35237 C8.95005,34.11747 8.676,33.66 8.676,33.16203 L8.676,28.728 L7.13403,28.728 C6.53913,28.728 6.01434,28.33857 5.84199,27.76923 C5.66964,27.19989 5.89023,26.58474 6.38523,26.2548 L15.06123,20.47077 C15.4755,20.19456 16.00812,20.16891 16.44705,20.40372 C16.88598,20.63862 17.16003,21.09609 17.16003,21.59406 L17.16003,26.028 L18.702,26.028 C19.2969,26.028 19.82169,26.41743 19.99404,26.98677 C20.16639,27.55611 19.9458,28.17135 19.4508,28.50129 L19.4508,28.50129 Z M20.052,15.81003 C20.052,16.55559 19.44756,17.16003 18.702,17.16003 L7.13403,17.16003 C6.38847,17.16003 5.78403,16.55559 5.78403,15.81003 L5.78403,7.857 C5.78403,7.11144 6.38847,6.507 7.13403,6.507 L18.702,6.507 C19.44756,6.507 20.052,7.11144 20.052,7.857 L20.052,15.81003 Z" id="Shape"></path>
                        <path d="M14.46003,24.11649 L10.98819,26.43111 C11.22804,26.67474 11.376,27.00909 11.376,27.378 L11.376,30.63951 L14.84784,28.32489 C14.60799,28.08126 14.46003,27.74691 14.46003,27.378 L14.46003,24.11649 Z" id="Path"></path>
                    </g>
                </g>
            </g>
        </g>
    </g>
</svg>