<?xml version="1.0" encoding="UTF-8"?>
<svg width="60px" height="60px" viewBox="0 0 60 60" version="1.1" xmlns="http://www.w3.org/2000/svg" xmlns:xlink="http://www.w3.org/1999/xlink">
    <!-- Generator: sketchtool 63.1 (101010) - https://sketch.com -->
    <title>83DA1CE1-912B-492A-AD7E-528104F85CF2</title>
    <desc>Created with sketchtool.</desc>
    <g id="Dashboard" stroke="none" stroke-width="1" fill="none" fill-rule="evenodd">
        <g id="Device-Details" transform="translate(0.000000, -65.000000)">
            <g id="menu" transform="translate(0.000000, 61.000000)">
                <g id="DB">
                    <g transform="translate(0.000000, 4.000000)">
                        <g id="db">
                            <g>
                                <rect id="Rectangle" fill-opacity="0.01" fill="#4F5758" x="0" y="0" width="60" height="60"></rect>
                                <path d="M39,35 C39.5522847,35 40,35.4477153 40,36 C40,36.5522847 39.5522847,37 39,37 L21,37 C20.4477153,37 20,36.5522847 20,36 C20,35.4477153 20.4477153,35 21,35 L39,35 Z M39,29 C39.5522847,29 40,29.4477153 40,30 C40,30.5522847 39.5522847,31 39,31 L21,31 C20.4477153,31 20,30.5522847 20,30 C20,29.4477153 20.4477153,29 21,29 L39,29 Z M39,23 C39.5522847,23 40,23.4477153 40,24 C40,24.5522847 39.5522847,25 39,25 L21,25 C20.4477153,25 20,24.5522847 20,24 C20,23.4477153 20.4477153,23 21,23 L39,23 Z" id="Combined-Shape" fill="#FFFFFF"></path>
                            </g>
                        </g>
                    </g>
                </g>
            </g>
        </g>
    </g>
</svg>