<?xml version="1.0" encoding="UTF-8"?>
<svg width="40px" height="40px" viewBox="0 0 40 40" version="1.1" xmlns="http://www.w3.org/2000/svg" xmlns:xlink="http://www.w3.org/1999/xlink">
    <!-- Generator: sketchtool 63.1 (101010) - https://sketch.com -->
    <title>8D67F2BC-6F27-4882-B466-77056A5FE01B</title>
    <desc>Created with sketchtool.</desc>
    <g id="Page-1" stroke="none" stroke-width="1" fill="none" fill-rule="evenodd">
        <g id="2C-Device-Device-Details-View-More" transform="translate(-672.000000, -674.000000)" fill="#109AD6">
            <g id="Device-Location" transform="translate(88.000000, 649.000000)">
                <g id="Group-ID-&amp;-alias">
                    <g id="c" transform="translate(584.000000, 25.000000)">
                        <rect id="Rectangle" opacity="0.100000001" x="0" y="0" width="40" height="40" rx="20"></rect>
                        <path d="M11.0185519,24.4997478 L11,28.202529 C11,28.4111531 11.0761102,28.6197772 11.2285684,28.7719138 C11.3810266,28.9240504 11.5703507,29 11.7803673,29 L15.4717114,28.9814873 C15.6807766,28.9814873 15.871052,28.9053003 16.0235103,28.7534011 L28.7714911,16.0313655 C29.0761696,15.728279 29.0761696,15.2341318 28.7714911,14.911346 L25.118202,11.2280269 C24.8135234,10.923991 24.3192829,10.923991 23.9960524,11.2280269 L21.446599,13.7915638 L11.2471203,23.9491131 C11.1141653,24.1010123 11.0185519,24.2911237 11.0185519,24.4997478 Z M24.5664032,12.8986811 L27.1353599,15.462218 L25.689742,16.9047861 L23.1207853,14.3412491 L24.5664032,12.8986811 Z M12.5980761,24.8417584 L21.9974465,15.462218 L24.5664032,18.025755 L15.1670328,27.3858333 L12.5795242,27.4052954 L12.5980761,24.8417584 Z" id="Fill-2"></path>
                    </g>
                </g>
            </g>
        </g>
    </g>
</svg>