<?xml version="1.0" encoding="UTF-8"?>
<svg width="30px" height="30px" viewBox="0 0 30 30" version="1.1" xmlns="http://www.w3.org/2000/svg" xmlns:xlink="http://www.w3.org/1999/xlink">
    <!-- Generator: sketchtool 63.1 (101010) - https://sketch.com -->
    <title>72C0ACF5-7023-45CD-9221-A3C84DD08921</title>
    <desc>Created with sketchtool.</desc>
    <g id="Dashboard" stroke="none" stroke-width="1" fill="none" fill-rule="evenodd">
        <g id="Device-Details" transform="translate(-459.000000, -256.000000)">
            <g id="Actions" transform="translate(445.000000, 180.000000)">
                <g id="Logs-Copy" transform="translate(0.000000, 76.000000)">
                    <g id="c-copy-5" transform="translate(14.000000, 0.000000)">
                        <rect id="Rectangle" stroke="#8F8F8F" x="0.5" y="0.5" width="29" height="29" rx="14.5"></rect>
                        <path d="M16.1313025,8 C16.5856528,8 16.9710671,8.3258826 17.0462699,8.77397117 L17.0462699,8.77397117 L17.2217431,9.8142887 C17.5883568,9.92396073 17.9424366,10.0712346 18.2808492,10.2498433 L18.2808492,10.2498433 L19.1519483,9.62941299 C19.3086208,9.51660748 19.4934943,9.45707123 19.6877682,9.45707123 C19.9353107,9.45707123 20.167186,9.55420932 20.3426592,9.72968456 L20.3426592,9.72968456 L21.2764273,10.6634635 C21.5991726,10.9830792 21.6399075,11.4875705 21.3766977,11.8573219 L21.3766977,11.8573219 L20.7562746,12.7252977 C20.9286144,13.0511803 21.0696196,13.3927303 21.1792904,13.7468143 L21.1792904,13.7468143 L22.2321295,13.925423 C22.6802129,14.0006267 23.0060917,14.3860455 22.9999136,14.8404011 L22.9999136,14.8404011 L22.9999136,16.1595989 C22.9999136,16.6139545 22.673946,16.9993733 22.2258626,17.074577 L22.2258626,17.074577 L21.1730235,17.2500522 C21.0664862,17.6010027 20.9223475,17.9425527 20.7500077,18.2715688 L20.7500077,18.2715688 L21.3704308,19.1426781 C21.6336406,19.5124295 21.5897723,20.0169208 21.2701604,20.3365365 L21.2701604,20.3365365 L20.3363923,21.2703154 C20.1609191,21.4457907 19.9290438,21.5429288 19.6815013,21.5429288 L19.6815013,21.5429288 L19.5658895,21.5358346 C19.413278,21.5169835 19.2678859,21.4608314 19.1425479,21.370587 L19.1425479,21.370587 L18.2745823,20.7501567 C17.9487035,20.9224984 17.6071575,21.0635053 17.2530776,21.1731774 L17.2530776,21.1731774 L17.074471,22.2260288 C16.9992682,22.6741174 16.6138538,23 16.1595036,23 L16.1595036,23 L14.8371877,23 C14.3828375,23 13.9974231,22.6741174 13.9222203,22.2260288 L13.9222203,22.2260288 L13.7467472,21.1731774 C13.4052011,21.0666388 13.0730554,20.9318989 12.756577,20.7658241 L12.756577,20.7658241 L11.8760775,21.3925214 C11.7194051,21.5053269 11.5345315,21.5648632 11.3402576,21.5648632 C11.0927151,21.5648632 10.8608398,21.4677251 10.6853666,21.2922498 L10.6853666,21.2922498 L9.7515985,20.3584709 C9.42885316,20.0388552 9.38811831,19.5343639 9.65132811,19.1646125 L9.65132811,19.1646125 L10.2686177,18.3060372 C10.0931445,17.9801546 9.94900585,17.6386046 9.8393351,17.2876541 L9.8393351,17.2876541 L8.77396213,17.1059118 C8.32587879,17.0307082 8,16.6452893 8,16.1909338 L8,16.1909338 L8,14.871736 C8,14.4173804 8.32587879,14.0319616 8.77396213,13.9567579 L8.77396213,13.9567579 L9.8142675,13.7812826 C9.9208048,13.4271987 10.0586766,13.0856486 10.2310163,12.7566325 L10.2310163,12.7566325 L9.60432636,11.8761228 C9.34111657,11.5063714 9.38498486,11.0018801 9.70459676,10.6822645 L9.70459676,10.6822645 L10.6414983,9.74848548 C10.813838,9.57301024 11.0488468,9.47587215 11.2963893,9.47587215 C11.4906632,9.47587215 11.6786702,9.5354084 11.8353427,9.64821391 L11.8353427,9.64821391 L12.6970414,10.2686442 C13.0229202,10.093169 13.3644663,9.94902862 13.7154127,9.83935659 L13.7154127,9.83935659 L13.8971527,8.77397117 C13.9723555,8.3258826 14.3577699,8 14.8121201,8 L14.8121201,8 Z M16.1375694,8.84290788 L14.818387,8.84290788 C14.7776522,8.84290788 14.7431842,8.87110925 14.7369173,8.91184458 L14.7369173,8.91184458 L14.5113089,10.2373094 C14.4831079,10.4002507 14.3609033,10.5318571 14.2010974,10.5757259 C13.7404803,10.6947984 13.2986638,10.8828076 12.8913153,11.1272196 C12.7471766,11.2118237 12.5654365,11.2055567 12.4275647,11.1084186 L12.4275647,11.1084186 L11.3465245,10.3375809 C11.3339907,10.3281805 11.3183235,10.3219135 11.2995228,10.3219135 C11.2838555,10.3219135 11.2619214,10.325047 11.2399872,10.3469814 L11.2399872,10.3469814 L10.3062191,11.2807604 C10.2780181,11.3089618 10.2748846,11.3559641 10.2968188,11.3872989 L10.2968188,11.3872989 L11.0770478,12.4840192 C11.1741848,12.6187591 11.1835851,12.7973679 11.098982,12.9415083 C10.8577063,13.351995 10.6790997,13.7969501 10.563162,14.2575726 C10.5224272,14.4205139 10.3876888,14.5427199 10.221616,14.5709212 L10.221616,14.5709212 L8.91496738,14.7902653 C8.87423253,14.7965323 8.84603148,14.8310006 8.84603148,14.871736 L8.84603148,14.871736 L8.84603148,16.1909338 C8.84603148,16.2316691 8.87423253,16.2661375 8.91496738,16.2724044 L8.91496738,16.2724044 L10.2404167,16.4980155 C10.4033561,16.5262168 10.534961,16.6484228 10.5788293,16.8082306 C10.6979004,17.2688531 10.8859074,17.7106747 11.1303165,18.118028 C11.2149196,18.2621684 11.2086527,18.4439106 11.1115158,18.581784 L11.1115158,18.581784 L10.3406871,19.6628368 C10.3187529,19.6973052 10.3218864,19.741174 10.3500874,19.7693754 L10.3500874,19.7693754 L11.2838555,20.7031544 C11.3057897,20.7250888 11.3308573,20.7282223 11.3433911,20.7282223 C11.3590583,20.7282223 11.3747256,20.7219553 11.3903928,20.7125548 L11.3903928,20.7125548 L12.4871003,19.9323167 C12.5591696,19.8790474 12.6469062,19.8539795 12.7315094,19.8539795 C12.8035787,19.8539795 12.8787815,19.8727804 12.944584,19.9103823 C13.348799,20.1422603 13.7812151,20.320869 14.2292984,20.436808 C14.3891044,20.4775433 14.5113089,20.6091498 14.53951,20.7752246 L14.53951,20.7752246 L14.7588515,22.0912889 C14.7651184,22.1320242 14.7995863,22.1602256 14.8403212,22.1602256 L14.8403212,22.1602256 L16.1595036,22.1602256 C16.2002384,22.1602256 16.2347064,22.1320242 16.2409733,22.0912889 L16.2409733,22.0912889 L16.4634482,20.7752246 C16.4885158,20.6122833 16.6107204,20.4775433 16.7736598,20.436808 C17.2342769,20.3177355 17.6760933,20.1359933 18.0865753,19.8915814 C18.230714,19.8069772 18.4124541,19.8132442 18.5471924,19.9103823 L18.5471924,19.9103823 L19.6344995,20.6843535 C19.6470333,20.6937539 19.6627006,20.7000209 19.6815013,20.7000209 C19.6971685,20.7000209 19.7191027,20.6968874 19.7410368,20.674953 L19.7410368,20.674953 L20.6748049,19.741174 C20.703006,19.7129726 20.7061394,19.6659703 20.6842053,19.6346355 L20.6842053,19.6346355 L19.9102431,18.5441822 C19.8131062,18.4063088 19.8068393,18.2277 19.8914424,18.0835596 C20.1358515,17.6730729 20.3175916,17.2312513 20.4366627,16.7706288 C20.4773976,16.610821 20.6090025,16.488615 20.7750753,16.4604136 L20.7750753,16.4604136 L22.0911243,16.2410696 C22.1318591,16.2348026 22.1600602,16.2003342 22.1600602,16.1595989 L22.1600602,16.1595989 L22.1631936,16.1595989 L22.1631936,14.8404011 C22.1631936,14.7996658 22.1349926,14.7651974 22.0942577,14.7589304 L22.0942577,14.7589304 L20.7782088,14.5364529 C20.6152694,14.511385 20.480531,14.389179 20.4397962,14.2262377 C20.3207251,13.7656152 20.138985,13.3237936 19.8945759,12.9133069 C19.8099727,12.7691665 19.8162396,12.5874243 19.9133766,12.4526844 L19.9133766,12.4526844 L20.6873387,11.3653645 C20.7092729,11.3308962 20.7061394,11.2870274 20.6779384,11.258826 L20.6779384,11.258826 L19.7441703,10.325047 C19.7222361,10.3031126 19.6971685,10.2999791 19.6846347,10.2999791 C19.6689675,10.2999791 19.6533002,10.3062461 19.637633,10.3156465 L19.637633,10.3156465 L18.5565928,11.0927512 C18.418721,11.1898893 18.2401143,11.1961563 18.0959756,11.1115521 C17.6760933,10.8640067 17.2248766,10.679131 16.7517256,10.5600585 C16.5887862,10.5193232 16.4665817,10.3845832 16.4383806,10.2185085 L16.4383806,10.2185085 L16.2190391,8.91184458 C16.2127722,8.87110925 16.1783043,8.84290788 16.1375694,8.84290788 L16.1375694,8.84290788 Z M15.5014791,12.2615417 C17.2875456,12.2615417 18.7383329,13.7123459 18.7383329,15.4984333 C18.7383329,17.2845206 17.2875456,18.7353248 15.5014791,18.7353248 C13.7154127,18.7353248 12.2646253,17.2845206 12.2646253,15.4984333 C12.2646253,13.7123459 13.7154127,12.2615417 15.5014791,12.2615417 Z M15.5014791,13.107583 C14.1822967,13.107583 13.1106568,14.1792354 13.1106568,15.4984333 C13.1106568,16.8176311 14.1822967,17.8892835 15.5014791,17.8892835 C16.8206615,17.8892835 17.8923014,16.8176311 17.8923014,15.4984333 C17.8923014,14.1792354 16.8206615,13.107583 15.5014791,13.107583 Z" id="Combined-Shape" fill="#8F8F8F" fill-rule="nonzero"></path>
                    </g>
                </g>
            </g>
        </g>
    </g>
</svg>