<?xml version="1.0" encoding="UTF-8"?>
<svg width="21px" height="24px" viewBox="0 0 21 24" version="1.1" xmlns="http://www.w3.org/2000/svg" xmlns:xlink="http://www.w3.org/1999/xlink">
    <title>C3D8C85A-5A08-43A8-A92F-47B819658110</title>
    <g id="Page-1" stroke="none" stroke-width="1" fill="none" fill-rule="evenodd">
        <g id="16b-Notification" transform="translate(-1163.000000, -16.000000)">
            <g id="Group" transform="translate(1163.000000, 16.000000)">
                <path d="M12.4490431,20 L7.55108462,20 L7.50073316,20.5 C7.50073316,21.8803516 8.62006676,23 10.0003764,23 C11.3807251,23 12.5000587,21.8803516 12.5000587,20.5 L12.4490431,20 Z M10.0000639,5 C6.68706299,5 4.00140453,7.68667969 4.00140453,11 C4.00140453,14 4.00140453,16 1.00207486,19 L18.9983654,19 C15.9990357,16 15.9990357,14 15.9990357,11 C15.9987232,7.68667969 13.3130648,5 10.0000639,5 Z M10.0000639,4 C13.8653683,4 16.9987211,7.13398438 16.9987211,11 C16.9987211,14.7593359 17.3527048,15.94 19.7050436,18.2930078 C20.3350423,18.9230078 19.8890276,20 18.9980529,20 L13.4487286,20 L13.4990409,20.5 C13.4990409,22.4330078 11.9324036,24 9.99971232,24 C8.0670601,24 6.50038369,22.4330078 6.50038369,20.5 L6.55073515,20 L1.00176236,20 C0.111061097,20 -0.334914534,18.9230078 0.294732589,18.2930078 C1.60906578,16.9780078 2.32140804,15.87 2.66839951,14.7126563 C2.94742236,13.7836719 3.00140662,13.0269922 3.00140662,11 C3.00140662,7.13398438 6.13472039,4 10.0000639,4 L10.0000639,4 Z" id="Fill-1" fill="#4F5758"></path>
                <circle id="Oval" stroke="#FFFFFF" stroke-width="2.36363636" fill="#109AD6" cx="14.5" cy="6.5" r="5.31818182"></circle>
            </g>
        </g>
    </g>
</svg>