<?xml version="1.0" encoding="UTF-8"?>
<svg width="30px" height="30px" viewBox="0 0 30 30" version="1.1" xmlns="http://www.w3.org/2000/svg" xmlns:xlink="http://www.w3.org/1999/xlink">
    <!-- Generator: sketchtool 63.1 (101010) - https://sketch.com -->
    <title>3B71DF7D-C8EA-42D8-95E1-31327F432009</title>
    <desc>Created with sketchtool.</desc>
    <g id="Dashboard" stroke="none" stroke-width="1" fill="none" fill-rule="evenodd">
        <g id="Device-Details" transform="translate(-1363.000000, -145.000000)">
            <g id="Apps" transform="translate(782.000000, 139.000000)">
                <g id="button-filled-copy" transform="translate(581.000000, 6.000000)">
                    <g id="c">
                        <rect id="Rectangle" fill="#109AD6" x="0" y="0" width="30" height="30" rx="15"></rect>
                        <path d="M10.6,17.25 L10.6,19.5 L19.4,19.5 L19.4,17.25 L21,17.25 L21,20.25 C21,20.66475 20.6424,21 20.2,21 L20.2,21 L9.8,21 C9.3584,21 9,20.66475 9,20.25 L9,20.25 L9,17.25 L10.6,17.25 Z M15.8,9 C16.0208,9 16.2,9.168 16.2,9.375 L16.2,9.375 L16.2,14.25 L17.8,14.25 C17.9568,14.25 18.0992,14.3355 18.164,14.46975 C18.2288,14.604 18.2048,14.7615 18.1008,14.87175 L18.1008,14.87175 L15.3008,17.87175 C15.2248,17.95275 15.1152,18 15,18 C14.8848,18 14.7752,17.9535 14.6992,17.87175 L14.6992,17.87175 L11.8992,14.87175 C11.796,14.76075 11.7704,14.604 11.836,14.46975 C11.9008,14.33625 12.0432,14.25 12.2,14.25 L12.2,14.25 L13.8,14.25 L13.8,9.375 C13.8,9.168 13.9792,9 14.2,9 L14.2,9 Z" id="Combined-Shape" fill="#FFFFFF" fill-rule="nonzero"></path>
                    </g>
                </g>
            </g>
        </g>
    </g>
</svg>