<?xml version="1.0" encoding="UTF-8"?>
<svg width="110px" height="42px" viewBox="0 0 110 42" version="1.1" xmlns="http://www.w3.org/2000/svg" xmlns:xlink="http://www.w3.org/1999/xlink">
    <!-- Generator: sketchtool 63.1 (101010) - https://sketch.com -->
    <title>15610905-056A-429B-A0FF-AF833F5D5C26</title>
    <desc>Created with sketchtool.</desc>
    <defs>
        <polygon id="path-1" points="0.257021792 41.6484504 109.894262 41.6484504 109.894262 0.0745762712 0.257021792 0.0745762712"></polygon>
    </defs>
    <g id="Dashboard" stroke="none" stroke-width="1" fill="none" fill-rule="evenodd">
        <g id="Device-Details" transform="translate(-10.000000, -9.000000)">
            <g id="header" transform="translate(1.000000, 0.000000)">
                <g id="logo">
                    <g transform="translate(9.000000, 9.000000)">
                        <path d="M8.78540436,34.530678 C8.78540436,34.3234625 8.73906053,34.1679177 8.64637288,34.0645763 C8.55341889,33.9609685 8.37416949,33.9090315 8.10782567,33.9090315 L3.10562228,33.9090315 L3.10562228,36.3063923 L8.10782567,36.3063923 C8.35099758,36.3063923 8.5249201,36.2597821 8.62932688,36.1654964 C8.73346731,36.072276 8.78540436,35.9361743 8.78540436,35.7587893 L8.78540436,34.530678 Z M11.6339516,36.3213075 C11.6339516,37.0513559 11.3993027,37.5861743 10.9305375,37.9262954 C10.4615061,38.2669492 9.86782567,38.4368765 9.15002906,38.4368765 L3.10562228,38.4368765 L3.10562228,41.648184 L0.257075061,41.648184 L0.257075061,31.7782809 L9.15002906,31.7782809 C9.94932688,31.7782809 10.5627167,31.9607264 10.9915303,32.3258838 C11.4195448,32.6907748 11.6339516,33.2136077 11.6339516,33.8946489 L11.6339516,36.3213075 Z" id="Fill-4" fill="#4F5758"></path>
                        <path d="M22.4777409,34.5157893 C22.4777409,34.3085738 22.4313971,34.1559588 22.3387094,34.0571453 C22.2457554,33.9585981 22.0665061,33.9090581 21.8001622,33.9090581 L16.7979588,33.9090581 L16.7979588,35.9218184 L21.8001622,35.9218184 C22.0433341,35.9218184 22.2172567,35.8725448 22.3216634,35.7737312 C22.4258039,35.675184 22.4777409,35.5369516 22.4777409,35.3593002 L22.4777409,34.5157893 Z M25.3262881,35.936201 C25.3262881,36.6665157 25.0916392,37.2013341 24.6228741,37.5419879 C24.1538426,37.8823753 23.5601622,38.0523027 22.8423656,38.0523027 L22.0433341,38.0523027 L26.5943511,41.6482107 L22.9121477,41.6482107 L18.3265061,38.0523027 L16.7979588,38.0523027 L16.7979588,41.6482107 L13.9494116,41.6482107 L13.9494116,31.7783075 L22.8423656,31.7783075 C23.6416634,31.7783075 24.2553196,31.960753 24.6838668,32.3259104 C25.1118814,32.6908015 25.3262881,33.2136344 25.3262881,33.8941429 L25.3262881,35.936201 Z" id="Fill-6" fill="#4F5758"></path>
                        <mask id="mask-2" fill="white">
                            <use xlink:href="#path-1"></use>
                        </mask>
                        <g id="Clip-9"></g>
                        <path d="M30.7161017,39.5174334 L37.3685714,39.5174334 L37.3685714,33.9092978 L30.7161017,33.9092978 L30.7161017,39.5174334 Z M40.217385,39.3248668 C40.217385,39.6705811 40.1505327,39.9856659 40.0176271,40.2719855 C39.8841889,40.5580387 39.6958838,40.802276 39.4527119,41.004431 C39.2100726,41.2068523 38.9200242,41.3647942 38.584431,41.4779903 C38.2485714,41.5914528 37.8836804,41.6484504 37.4902906,41.6484504 L30.5946489,41.6484504 C30.1890073,41.6484504 29.818523,41.5914528 29.4826634,41.4779903 C29.1468039,41.3647942 28.8604843,41.2068523 28.6231719,41.004431 C28.3855932,40.802276 28.2002179,40.5580387 28.0673123,40.2719855 C27.9341404,39.9856659 27.8675545,39.6705811 27.8675545,39.3248668 L27.8675545,34.1015981 C27.8675545,33.3912591 28.1133898,32.8268765 28.6055932,32.407385 C29.0977966,31.9881598 29.7609927,31.7782809 30.5946489,31.7782809 L37.4902906,31.7782809 C37.8836804,31.7782809 38.2485714,31.8323487 38.584431,31.9410169 C38.9200242,32.0499516 39.2100726,32.20523 39.4527119,32.407385 C39.6958838,32.6092736 39.8841889,32.8537772 40.0176271,33.1398305 C40.1505327,33.4258838 40.217385,33.7462954 40.217385,34.1015981 L40.217385,39.3248668 Z" id="Fill-8" fill="#4F5758" mask="url(#mask-2)"></path>
                        <polygon id="Fill-10" fill="#4F5758" mask="url(#mask-2)" points="49.3189395 33.9090581 49.3189395 41.6482107 46.4703923 41.6482107 46.4703923 33.9090581 41.6937821 33.9090581 41.6937821 31.7780412 54.0955496 31.7780412 54.0955496 33.9090581"></polygon>
                        <polygon id="Fill-11" fill="#4F5758" mask="url(#mask-2)" points="55.8792276 41.648184 55.8792276 31.7782809 66.5441671 31.7782809 66.5441671 33.9090315 58.7277748 33.9090315 58.7277748 35.6109685 63.869276 35.6109685 63.869276 37.6975061 58.7277748 37.6975061 58.7277748 39.5171671 66.6658862 39.5171671 66.6658862 41.648184"></polygon>
                        <path d="M77.0911429,34.5157893 C77.0911429,34.3085738 77.044799,34.1559588 76.9521114,34.0571453 C76.8591574,33.9585981 76.679908,33.9090581 76.4135642,33.9090581 L71.4113608,33.9090581 L71.4113608,35.9218184 L76.4135642,35.9218184 C76.6567361,35.9218184 76.8306586,35.8725448 76.9350654,35.7737312 C77.0392058,35.675184 77.0911429,35.5369516 77.0911429,35.3593002 L77.0911429,34.5157893 Z M79.9396901,35.936201 C79.9396901,36.6665157 79.7050412,37.2013341 79.236276,37.5419879 C78.7672446,37.8823753 78.1735642,38.0523027 77.4557676,38.0523027 L76.6567361,38.0523027 L81.207753,41.6482107 L77.5255496,41.6482107 L72.939908,38.0523027 L71.4113608,38.0523027 L71.4113608,41.6482107 L68.5628136,41.6482107 L68.5628136,31.7783075 L77.4557676,31.7783075 C78.2550654,31.7783075 78.8687215,31.960753 79.2972688,32.3259104 C79.7252833,32.6908015 79.9396901,33.2136344 79.9396901,33.8941429 L79.9396901,35.936201 Z" id="Fill-12" fill="#4F5758" mask="url(#mask-2)"></path>
                        <path d="M90.7940533,34.5157893 C90.7940533,34.3085738 90.7477094,34.1559588 90.6550218,34.0571453 C90.5620678,33.9585981 90.3828184,33.9090581 90.1164746,33.9090581 L85.1142712,33.9090581 L85.1142712,35.9218184 L90.1164746,35.9218184 C90.3596465,35.9218184 90.5338354,35.8725448 90.6379758,35.7737312 C90.7421162,35.675184 90.7940533,35.5369516 90.7940533,35.3593002 L90.7940533,34.5157893 Z M93.6426005,35.936201 C93.6426005,36.6665157 93.4079516,37.2013341 92.9391864,37.5419879 C92.470155,37.8823753 91.8764746,38.0523027 91.158678,38.0523027 L90.3596465,38.0523027 L94.9106634,41.6482107 L91.22846,41.6482107 L86.6428184,38.0523027 L85.1142712,38.0523027 L85.1142712,41.6482107 L82.265724,41.6482107 L82.265724,31.7783075 L91.158678,31.7783075 C91.9579758,31.7783075 92.571632,31.960753 93.0001792,32.3259104 C93.4281937,32.6908015 93.6426005,33.2136344 93.6426005,33.8941429 L93.6426005,35.936201 Z" id="Fill-13" fill="#4F5758" mask="url(#mask-2)"></path>
                        <path d="M102.616789,34.2345569 L100.497492,37.9045085 L104.718508,37.9045085 L102.616789,34.2345569 Z M106.785337,41.6482373 L105.777492,39.9465666 L99.4728668,39.9465666 L98.4655545,41.6482373 L95.4257724,41.6482373 L101.452867,31.7783341 L103.97168,31.7783341 L109.894634,41.6482373 L106.785337,41.6482373 Z" id="Fill-14" fill="#4F5758" mask="url(#mask-2)"></path>
                        <path d="M50.5417506,11.5855303 L54.1006368,9.53068765 L57.6592567,11.5855303 L57.6592567,15.6957482 L54.1006368,17.7505908 L50.5417506,15.6957482 L50.5417506,11.5855303 Z M54.1006368,0.0746828087 L42.352477,6.85792736 L42.352477,20.4241501 L45.0809031,21.9990412 L45.0809031,18.8479274 L45.0809031,18.8471283 L45.0809031,8.43335109 L54.1006368,3.2263293 L63.1195714,8.43335109 L63.1195714,18.8479274 L54.1006368,24.0549492 L50.5417506,22.0006392 L50.5417506,18.8471283 L54.1006368,20.9017046 L60.3892809,17.2714383 L60.3892809,10.0101065 L54.1006368,6.37930751 L47.8125254,10.0101065 L47.8125254,16.4835932 L47.8125254,17.2714383 L47.8125254,18.8471283 L47.8125254,20.4249492 L47.8125254,23.5763293 L50.5417506,25.1512203 L54.1006368,27.2065956 L65.8487966,20.4241501 L65.8487966,6.85792736 L54.1006368,0.0746828087 Z" id="Fill-15" fill="#5E9F43" mask="url(#mask-2)"></path>
                        <path d="M57.6830145,15.7490436 L54.1241283,17.8038862 L50.5655085,15.7490436 L50.5655085,11.6388257 L54.1241283,9.58398305 L57.6830145,11.6388257 L57.6830145,15.7490436 Z M54.1241283,27.259891 L65.8722881,20.4766465 L65.8722881,6.91042373 L63.143862,5.33553269 L63.143862,8.48664649 L63.143862,8.48744552 L63.143862,18.9012228 L54.1241283,24.1082446 L45.1051937,18.9012228 L45.1051937,8.48664649 L54.1241283,3.2796247 L57.6830145,5.33393462 L57.6830145,8.48744552 L54.1241283,6.43286925 L47.8354843,10.0631356 L47.8354843,17.3244673 L54.1241283,20.9552663 L60.4122397,17.3244673 L60.4122397,10.8509806 L60.4122397,10.0631356 L60.4122397,8.48744552 L60.4122397,6.9096247 L60.4122397,3.75824455 L57.6830145,2.18335351 L54.1241283,0.127978208 L42.3759685,6.91042373 L42.3759685,20.4766465 L54.1241283,27.259891 Z" id="Fill-16" fill="#5E9F43" mask="url(#mask-2)"></path>
                        <polygon id="Fill-17" fill="#5E9F43" mask="url(#mask-2)" points="66.3343947 6.87385472 66.9805448 6.87385472 66.9805448 6.99450847 66.7269855 6.99450847 66.7269855 7.67235351 66.587155 7.67235351 66.587155 6.99450847 66.3343947 6.99450847"></polygon>
                        <polygon id="Fill-18" fill="#5E9F43" mask="url(#mask-2)" points="67.0712615 6.87385472 67.2680896 6.87385472 67.4883559 7.49923002 67.490753 7.49923002 67.7054262 6.87385472 67.9001235 6.87385472 67.9001235 7.67235351 67.7666852 7.67235351 67.7666852 7.0560339 67.7645545 7.0560339 67.5434891 7.67235351 67.4278959 7.67235351 67.2065642 7.0560339 67.2041671 7.0560339 67.2041671 7.67235351 67.0712615 7.67235351"></polygon>
                    </g>
                </g>
            </g>
        </g>
    </g>
</svg>