<?xml version="1.0" encoding="UTF-8"?>
<svg width="30px" height="30px" viewBox="0 0 30 30" version="1.1" xmlns="http://www.w3.org/2000/svg" xmlns:xlink="http://www.w3.org/1999/xlink">
    <!-- Generator: sketchtool 63.1 (101010) - https://sketch.com -->
    <title>B256A344-F75C-4B87-AA9F-53CCCBDE3F8F</title>
    <desc>Created with sketchtool.</desc>
    <g id="Dashboard" stroke="none" stroke-width="1" fill="none" fill-rule="evenodd">
        <g id="Device-Details" transform="translate(-570.000000, -256.000000)">
            <g id="Actions" transform="translate(445.000000, 180.000000)">
                <g id="Restart-Device" transform="translate(95.000000, 76.000000)">
                    <g id="c" transform="translate(30.000000, 0.000000)">
                        <rect id="Rectangle" fill="#FA415F" x="0" y="0" width="30" height="30" rx="15"></rect>
                        <path d="M16.2354337,21.9579464 C19.2415179,21.6212117 21.6507015,19.2182653 21.9935969,16.2120281 C22.4436735,12.2814541 19.3884184,8.93549745 15.5589031,8.8927551 L15.5589031,7.12941327 C15.5589031,7.03149235 15.4364923,6.9794898 15.3538393,7.04059949 L11.7232653,9.70692602 C11.6619643,9.75295918 11.6619643,9.8416199 11.7232653,9.88765306 L15.3538393,12.5539796 C15.4364923,12.6150893 15.5589031,12.560102 15.5589031,12.4651658 L15.5589031,10.7049617 C18.2497577,10.7478571 20.4048597,13.0376531 20.221148,15.7743878 C20.065102,18.1284311 18.1457143,20.0385587 15.7914796,20.1886352 C13.2966199,20.3478189 11.1753061,18.5661097 10.7956378,16.2090434 C10.7252296,15.77125 10.3425765,15.4528444 9.9017602,15.4528444 C9.35380102,15.4528444 8.92526786,15.9396939 9.01090561,16.4815306 C9.5436352,19.8396173 12.6446173,22.3590051 16.2354337,21.9579464 Z" id="Fill-1" fill="#F4F4F8"></path>
                    </g>
                </g>
            </g>
        </g>
    </g>
</svg>