<?xml version="1.0" encoding="UTF-8"?>
<svg width="30px" height="30px" viewBox="0 0 30 30" version="1.1" xmlns="http://www.w3.org/2000/svg" xmlns:xlink="http://www.w3.org/1999/xlink">
    <!-- Generator: sketchtool 63.1 (101010) - https://sketch.com -->
    <title>E2183646-E6D1-406F-9267-F41FC437B901</title>
    <desc>Created with sketchtool.</desc>
    <g id="Dashboard" stroke="none" stroke-width="1" fill="none" fill-rule="evenodd">
        <g id="Device-Details" transform="translate(-1249.000000, -145.000000)">
            <g id="Apps" transform="translate(782.000000, 139.000000)">
                <g id="c-copy-5" transform="translate(467.000000, 6.000000)">
                    <rect id="Rectangle" stroke="#8F8F8F" x="0.5" y="0.5" width="29" height="29" rx="14.5"></rect>
                    <path d="M17.7304688,7 L17.7304688,7.87890625 L20.8359375,7.87890625 L20.8359375,22 L9,22 L9,7.87890625 L12.1054688,7.87890625 L12.1054688,7 L17.7304688,7 Z M19.9570312,8.7578125 L9.87890625,8.7578125 L9.87890625,21.1210938 L19.9570312,21.1210938 L19.9570312,8.7578125 Z M18.9785156,17.8242188 L18.9785156,19.703125 L13.6152344,19.703125 L13.6152344,17.8242188 L18.9785156,17.8242188 Z M12.7363281,17.8242188 L12.7363281,19.703125 L10.8574219,19.703125 L10.8574219,17.8242188 L12.7363281,17.8242188 Z M18.9785156,14.5273438 L18.9785156,16.40625 L13.6152344,16.40625 L13.6152344,14.5273438 L18.9785156,14.5273438 Z M12.7363281,14.5273438 L12.7363281,16.40625 L10.8574219,16.40625 L10.8574219,14.5273438 L12.7363281,14.5273438 Z M18.9785156,10.9335938 L18.9785156,12.8125 L13.6152344,12.8125 L13.6152344,10.9335938 L18.9785156,10.9335938 Z M12.7363281,10.9335938 L12.7363281,12.8125 L10.8574219,12.8125 L10.8574219,10.9335938 L12.7363281,10.9335938 Z" id="Combined-Shape" fill="#8F8F8F"></path>
                </g>
            </g>
        </g>
    </g>
</svg>