<?xml version="1.0" encoding="UTF-8"?>
<svg width="30px" height="30px" viewBox="0 0 30 30" version="1.1" xmlns="http://www.w3.org/2000/svg" xmlns:xlink="http://www.w3.org/1999/xlink">
    <!-- Generator: sketchtool 63.1 (101010) - https://sketch.com -->
    <title>35AA5EA6-06C4-4ED2-8177-A8B823081792</title>
    <desc>Created with sketchtool.</desc>
    <g id="Dashboard" stroke="none" stroke-width="1" fill="none" fill-rule="evenodd">
        <g id="Device-Details" transform="translate(-459.000000, -180.000000)">
            <g id="Actions" transform="translate(445.000000, 180.000000)">
                <g id="Dispensers-Copy" transform="translate(4.000000, 0.000000)">
                    <g id="c" transform="translate(10.000000, 0.000000)">
                        <g id="Group-4">
                            <rect id="Rectangle" stroke="#8F8F8F" x="0.5" y="0.5" width="29" height="29" rx="14.5"></rect>
                            <g id="shield" transform="translate(9.000000, 8.000000)" fill="#8F8F8F" fill-rule="nonzero">
                                <path d="M12.2949902,2.42888306 L6.55280273,0.0447912604 C6.40895508,-0.0149157708 6.24726562,-0.0149450677 6.10344727,0.0447912604 L0.361259766,2.42888306 C0.142558594,2.51970337 0,2.73321899 0,2.97002564 L0,5.86821899 C0,9.85883423 2.41198242,13.4484924 6.10669922,14.9565491 C6.24861328,15.014469 6.40760742,15.014469 6.54955078,14.9565491 C10.244209,13.4485217 12.65625,9.85886353 12.65625,5.86821899 L12.65625,2.97002564 C12.65625,2.73321899 12.5137207,2.51970337 12.2949902,2.42888306 Z M11.484375,5.86821899 C11.484375,9.26065064 9.4921875,12.3836096 6.328125,13.7776135 C3.24861328,12.4208459 1.171875,9.35258423 1.171875,5.86821899 L1.171875,3.36119751 L6.328125,1.22035767 L11.484375,3.36119751 L11.484375,5.86821899 Z M5.68048828,7.84323853 L8.19896484,5.32479126 C8.42777344,5.09598267 8.79875977,5.09595337 9.02759766,5.32479126 C9.25643555,5.55362915 9.25640625,5.92461548 9.02756836,6.15342407 L6.09480469,9.08618774 C5.8659375,9.31505493 5.49495117,9.31496704 5.26617187,9.08618774 L3.62865234,7.44866821 C3.39981445,7.21983032 3.39981445,6.84884399 3.62865234,6.6200354 C3.85749023,6.39122681 4.22847656,6.39119751 4.45728516,6.6200354 L5.68048828,7.84323853 Z" id="Shape"></path>
                            </g>
                        </g>
                    </g>
                </g>
            </g>
        </g>
    </g>
</svg>