<?xml version="1.0" encoding="UTF-8"?>
<svg width="60px" height="60px" viewBox="0 0 60 60" version="1.1" xmlns="http://www.w3.org/2000/svg" xmlns:xlink="http://www.w3.org/1999/xlink">
    <title>2B5CD1B9-83DD-42D8-9723-4C05EE0E6F0A</title>
    <g id="Page-1" stroke="none" stroke-width="1" fill="none" fill-rule="evenodd">
        <g id="2e-Device-Details-APP-Package-States" transform="translate(0.000000, -248.000000)">
            <g id="menu" transform="translate(0.000000, 61.000000)">
                <g id="users" transform="translate(0.000000, 187.000000)">
                    <rect id="Rectangle" fill-opacity="0.01" fill="#4F5758" x="0" y="0" width="60" height="60"></rect>
                    <path d="M30.8417367,21 C31.447537,21 31.9614228,21.4345101 32.0616932,22.0319616 L32.0616932,22.0319616 L32.2956575,23.4190516 C32.7844757,23.565281 33.2565821,23.7616461 33.7077989,23.9997911 L33.7077989,23.9997911 L34.8692643,23.1725507 C35.078161,23.0221433 35.3246591,22.9427616 35.5836909,22.9427616 C35.9137477,22.9427616 36.2229147,23.0722791 36.456879,23.3062461 L36.456879,23.3062461 L37.7019031,24.5512847 C38.1322302,24.9774389 38.1865433,25.650094 37.8355969,26.1430959 L37.8355969,26.1430959 L37.0083662,27.3003969 C37.2381525,27.734907 37.4261595,28.1903071 37.5723871,28.6624191 L37.5723871,28.6624191 L38.9761727,28.900564 C39.5736172,29.0008356 40.0081222,29.5147274 39.9998848,30.1205348 L39.9998848,30.1205348 L39.9998848,31.8794652 C39.9998848,32.4852726 39.5652613,32.9991644 38.9678168,33.099436 L38.9678168,33.099436 L37.5640313,33.333403 C37.4219815,33.801337 37.2297966,34.256737 37.0000103,34.6954251 L37.0000103,34.6954251 L37.8272411,35.8569041 C38.1781875,36.349906 38.1196964,37.0225611 37.6935472,37.4487153 L37.6935472,37.4487153 L36.4485231,38.6937539 C36.2145588,38.9277209 35.9053918,39.0572384 35.5753351,39.0572384 L35.5753351,39.0572384 L35.421186,39.0477794 C35.217704,39.0226447 35.0238479,38.9477752 34.8567305,38.8274493 L34.8567305,38.8274493 L33.699443,38.0002089 C33.264938,38.2299979 32.8095433,38.4180071 32.3374368,38.5642365 L32.3374368,38.5642365 L32.0992946,39.9680384 C31.9990242,40.5654899 31.4851384,41 30.8793381,41 L30.8793381,41 L29.1162503,41 C28.51045,41 27.9965642,40.5654899 27.8962938,39.9680384 L27.8962938,39.9680384 L27.6623295,38.5642365 C27.2069348,38.4221851 26.7640739,38.2425319 26.3421026,38.0210988 L26.3421026,38.0210988 L25.1681034,38.8566952 C24.9592067,39.0071026 24.7127087,39.0864842 24.4536768,39.0864842 C24.1236201,39.0864842 23.814453,38.9569668 23.5804888,38.7229998 L23.5804888,38.7229998 L22.3354647,37.4779611 C21.9051376,37.051807 21.8508244,36.3791519 22.2017708,35.88615 L22.2017708,35.88615 L23.0248237,34.7413829 C22.7908594,34.3068728 22.5986745,33.8514727 22.4524468,33.3835388 L22.4524468,33.3835388 L21.0319495,33.1412158 C20.4345051,33.0409442 20,32.5270524 20,31.921245 L20,31.921245 L20,30.1623146 C20,29.5565072 20.4345051,29.0426154 21.0319495,28.9423438 L21.0319495,28.9423438 L22.4190233,28.7083769 C22.5610731,28.2362649 22.7449021,27.7808648 22.9746885,27.3421767 L22.9746885,27.3421767 L22.1391018,26.1681638 C21.7881554,25.6751619 21.8466465,25.0025068 22.2727957,24.5763526 L22.2727957,24.5763526 L23.5219977,23.331314 C23.751784,23.097347 24.065129,22.9678295 24.3951858,22.9678295 C24.6542176,22.9678295 24.9048936,23.0472112 25.1137903,23.1976186 L25.1137903,23.1976186 L26.2627219,24.024859 C26.697227,23.790892 27.1526217,23.5987048 27.6205502,23.4524755 L27.6205502,23.4524755 L27.8628703,22.0319616 C27.9631407,21.4345101 28.4770265,21 29.0828268,21 L29.0828268,21 Z M30.8500926,22.1238772 L29.0911827,22.1238772 C29.0368696,22.1238772 28.9909123,22.161479 28.9825564,22.2157928 L28.9825564,22.2157928 L28.6817452,23.9830792 C28.6441438,24.2003342 28.4812044,24.3758095 28.2681299,24.4343012 C27.6539737,24.5930645 27.0648851,24.8437435 26.5217538,25.1696261 C26.3295688,25.2824316 26.0872487,25.2740756 25.9034196,25.1445582 L25.9034196,25.1445582 L24.4620327,24.1167746 C24.445321,24.1042407 24.4244313,24.0958847 24.3993637,24.0958847 C24.378474,24.0958847 24.3492285,24.1000627 24.319983,24.1293085 L24.319983,24.1293085 L23.0749589,25.3743472 C23.0373575,25.411949 23.0331795,25.4746188 23.0624251,25.5163986 L23.0624251,25.5163986 L24.1027304,26.9786923 C24.2322464,27.1583455 24.2447802,27.3964905 24.131976,27.5886777 C23.8102751,28.1359933 23.5721329,28.7292668 23.4175494,29.3434301 C23.3632362,29.5606852 23.1835851,29.7236265 22.9621547,29.7612283 L22.9621547,29.7612283 L21.2199565,30.0536871 C21.1656434,30.062043 21.128042,30.1080008 21.128042,30.1623146 L21.128042,30.1623146 L21.128042,31.921245 C21.128042,31.9755588 21.1656434,32.0215166 21.2199565,32.0298726 L21.2199565,32.0298726 L22.9872223,32.3306873 C23.2044748,32.3682891 23.379948,32.5312304 23.438439,32.7443075 C23.5972005,33.3584709 23.8478765,33.9475663 24.1737553,34.490704 C24.2865595,34.6828912 24.2782036,34.9252141 24.1486877,35.1090453 L24.1486877,35.1090453 L23.1209161,36.5504491 C23.0916706,36.5964069 23.0958485,36.6548987 23.1334499,36.6925005 L23.1334499,36.6925005 L24.378474,37.9375392 C24.4077196,37.966785 24.441143,37.970963 24.4578548,37.970963 C24.4787444,37.970963 24.4996341,37.9626071 24.5205237,37.9500731 L24.5205237,37.9500731 L25.9828004,36.9097556 C26.0788928,36.8387299 26.195875,36.805306 26.3086792,36.805306 C26.4047716,36.805306 26.505042,36.8303739 26.5927786,36.8805097 C27.131732,37.1896804 27.7082868,37.4278254 28.3057313,37.5824107 C28.5188058,37.6367245 28.6817452,37.8121997 28.7193466,38.0336328 L28.7193466,38.0336328 L29.011802,39.7883852 C29.0201578,39.842699 29.0661151,39.8803008 29.1204282,39.8803008 L29.1204282,39.8803008 L30.8793381,39.8803008 C30.9336513,39.8803008 30.9796085,39.842699 30.9879644,39.7883852 L30.9879644,39.7883852 L31.2845976,38.0336328 C31.3180211,37.8163777 31.4809605,37.6367245 31.698213,37.5824107 C32.3123692,37.4236474 32.9014578,37.1813244 33.4487671,36.8554418 C33.640952,36.7426363 33.8832721,36.7509923 34.0629232,36.8805097 L34.0629232,36.8805097 L35.5126661,37.9124713 C35.5293778,37.9250052 35.5502675,37.9333612 35.5753351,37.9333612 C35.5962247,37.9333612 35.6254703,37.9291832 35.6547158,37.8999373 L35.6547158,37.8999373 L36.8997399,36.6548987 C36.9373413,36.6172968 36.9415192,36.5546271 36.9122737,36.5128473 L36.9122737,36.5128473 L35.8803242,35.0589095 C35.7508083,34.8750783 35.7424524,34.6369334 35.8552566,34.4447462 C36.1811354,33.8974305 36.4234555,33.3083351 36.582217,32.6941717 C36.6365301,32.4810946 36.8120033,32.3181533 37.0334338,32.2805515 L37.0334338,32.2805515 L38.7881657,31.9880928 C38.8424788,31.9797368 38.8800802,31.933779 38.8800802,31.8794652 L38.8800802,31.8794652 L38.8842582,31.8794652 L38.8842582,30.1205348 C38.8842582,30.066221 38.8466568,30.0202632 38.7923436,30.0119072 L38.7923436,30.0119072 L37.0376117,29.7152705 C36.8203592,29.6818467 36.640708,29.5189054 36.5863949,29.3016503 C36.4276334,28.6874869 36.1853133,28.0983915 35.8594345,27.5510758 C35.7466303,27.3588887 35.7549862,27.1165657 35.8845021,26.9369125 L35.8845021,26.9369125 L36.9164516,25.4871527 C36.9456972,25.4411949 36.9415192,25.3827032 36.9039178,25.3451013 L36.9039178,25.3451013 L35.6588937,24.1000627 C35.6296482,24.0708168 35.5962247,24.0666388 35.579513,24.0666388 C35.5586233,24.0666388 35.5377337,24.0749948 35.516844,24.0875287 L35.516844,24.0875287 L34.075457,25.1236683 C33.891628,25.2531857 33.6534858,25.2615417 33.4613009,25.1487362 C32.9014578,24.8186756 32.2998354,24.5721746 31.6689675,24.4134113 C31.451715,24.3590976 31.2887756,24.1794443 31.2511742,23.9580113 L31.2511742,23.9580113 L30.9587188,22.2157928 C30.950363,22.161479 30.9044057,22.1238772 30.8500926,22.1238772 L30.8500926,22.1238772 Z M30.0019721,26.6820556 C32.3833941,26.6820556 34.3177772,28.6164612 34.3177772,30.997911 C34.3177772,33.3793608 32.3833941,35.3137665 30.0019721,35.3137665 C27.6205502,35.3137665 25.6861671,33.3793608 25.6861671,30.997911 C25.6861671,28.6164612 27.6205502,26.6820556 30.0019721,26.6820556 Z M30.0019721,27.8101107 C28.2430623,27.8101107 26.8142091,29.2389806 26.8142091,30.997911 C26.8142091,32.7568414 28.2430623,34.1857113 30.0019721,34.1857113 C31.760882,34.1857113 33.1897352,32.7568414 33.1897352,30.997911 C33.1897352,29.2389806 31.760882,27.8101107 30.0019721,27.8101107 Z" id="Combined-Shape" fill="#FFFFFF" fill-rule="nonzero"></path>
                </g>
            </g>
        </g>
    </g>
</svg>