<?xml version="1.0" encoding="UTF-8"?>
<svg width="16px" height="16px" viewBox="0 0 16 16" version="1.1" xmlns="http://www.w3.org/2000/svg" xmlns:xlink="http://www.w3.org/1999/xlink">
    <!-- Generator: sketchtool 63.1 (101010) - https://sketch.com -->
    <title>D14B77BE-BDD8-47CE-B327-274347296C11</title>
    <desc>Created with sketchtool.</desc>
    <g id="Dashboard" stroke="none" stroke-width="1" fill="none" fill-rule="evenodd">
        <g id="Dashboard-All-Devices" transform="translate(-690.000000, -319.000000)" fill="#8F8F8F" fill-rule="nonzero">
            <g id="search" transform="translate(390.000000, 309.000000)">
                <g>
                    <g transform="translate(300.000000, 10.000000)">
                        <path d="M6.49199382,1.02485629 C8.70415038,1.02283615 10.6996072,2.35531001 11.5475631,4.40073414 C12.3955189,6.44615827 11.9289116,8.80154802 10.3653948,10.3682078 C8.80187798,11.9348676 6.44949213,12.4041377 4.40553162,11.5571224 C2.36157111,10.7101071 1.02873133,8.71368331 1.02873133,6.49910327 C1.04237963,3.48338719 3.4795904,1.04127717 6.49199382,1.02485629 L6.49199382,1.02485629 Z M6.49199382,4.39587665e-13 C2.90656464,4.39587665e-13 -1.66771873e-13,2.90974765 -1.66771873e-13,6.49910327 C-1.66771873e-13,10.0884589 2.90656464,12.9982065 6.49199382,12.9982065 C10.077423,12.9982065 12.9839876,10.0884589 12.9839876,6.49910327 C12.9839876,2.90974765 10.077423,4.39587665e-13 6.49199382,4.39587665e-13 Z M15.8154957,15.1429106 L12.1350346,11.4334225 L11.4259091,12.1383252 L15.1063702,15.8478134 C15.2321512,15.9746252 15.415957,16.0246272 15.5885496,15.9789843 C15.7611422,15.9333414 15.8963007,15.7989877 15.9431123,15.6265329 C15.9899239,15.4540782 15.9412767,15.2697224 15.8154957,15.1429106 Z"></path>
                    </g>
                </g>
            </g>
        </g>
    </g>
</svg>