<?xml version="1.0" encoding="UTF-8"?>
<svg width="30px" height="30px" viewBox="0 0 30 30" version="1.1" xmlns="http://www.w3.org/2000/svg" xmlns:xlink="http://www.w3.org/1999/xlink">
    <!-- Generator: sketchtool 63.1 (101010) - https://sketch.com -->
    <title>B19F9CE8-6CB2-4B88-A60E-FFAA56D6C0E5</title>
    <desc>Created with sketchtool.</desc>
    <g id="Dashboard" stroke="none" stroke-width="1" fill="none" fill-rule="evenodd">
        <g id="Device-Details" transform="translate(-1363.000000, -285.000000)">
            <g id="Apps" transform="translate(782.000000, 279.000000)">
                <g id="button-filled-copy" transform="translate(581.000000, 6.000000)">
                    <g id="c" fill="#6C7E81">
                        <rect id="Rectangle" x="0" y="0" width="30" height="30" rx="15"></rect>
                    </g>
                    <g id="trash" transform="translate(10.000000, 9.000000)" fill-rule="nonzero">
                        <path d="M3.66494752,0.724365234 L5.6705017,0.724365234 L5.6705017,1.06182862 L6.39477541,1.06182862 L6.39477541,0.677124023 C6.39486694,0.303771984 6.09127807,0 5.71810912,0 L3.61734009,0 C3.24417115,0 2.94058228,0.303771984 2.94058228,0.677124023 L2.94058228,1.06182862 L3.66494752,1.06182862 L3.66494752,0.724365234 Z" id="Path" fill="#FFF3F3"></path>
                        <path d="M8.06744386,3.93164062 L1.26800536,3.93164062 C1.08169556,3.93164062 0.93502807,4.09057617 0.950042719,4.27633666 L1.51849364,11.3053894 C1.5501709,11.6977844 1.87747193,12 2.27069091,12 L7.06466674,12 C7.45788574,12 7.78518677,11.6977844 7.81686401,11.3052979 L8.38531495,4.27633666 C8.40042115,4.09057617 8.25375366,3.93164062 8.06744386,3.93164062 L8.06744386,3.93164062 Z M2.91439819,11.2502747 C2.90679933,11.2507324 2.89920045,11.2510071 2.89169311,11.2510071 C2.70181275,11.2510071 2.54241942,11.1031494 2.53060912,10.9110718 L2.17437745,5.14059448 C2.16210937,4.94091797 2.31399537,4.76907349 2.51358033,4.75680541 C2.71252441,4.74472045 2.88510131,4.89624023 2.89736939,5.09600831 L3.25350952,10.8664856 C3.26586914,11.0661621 3.11398315,11.237915 2.91439819,11.2502747 L2.91439819,11.2502747 Z M5.03393555,10.8888245 C5.03393555,11.0887756 4.87179565,11.2509155 4.67175293,11.2509155 C4.47171021,11.2509155 4.30957031,11.0887756 4.30957031,10.8888245 L4.30957031,5.11825561 C4.30957031,4.91821289 4.47171021,4.75607299 4.67175293,4.75607299 C4.8717041,4.75607299 5.03393555,4.91821289 5.03393555,5.11825561 L5.03393555,10.8888245 Z M7.16107177,5.13958739 L6.82095338,10.9100647 C6.80969238,11.1025085 6.65002441,11.2509155 6.45977784,11.2509155 C6.45263672,11.2509155 6.44540405,11.2507324 6.43817138,11.2503662 C6.23849487,11.2385559 6.08615112,11.0671692 6.09796144,10.8674927 L6.43798828,5.09692383 C6.44970703,4.89724732 6.62054442,4.74490357 6.82077026,4.75671387 C7.02044677,4.76843262 7.17279052,4.93991088 7.16107177,5.13958739 L7.16107177,5.13958739 Z" id="Shape" fill="#FFFFFF"></path>
                        <path d="M9.31988527,2.81396484 L9.08203125,2.10095215 C9.01931763,1.91299439 8.84335327,1.78619386 8.6451416,1.78619386 L0.69021607,1.78619386 C0.492095953,1.78619386 0.316040039,1.91299439 0.253417969,2.10095215 L0.0155639531,2.81396484 C-0.0303039609,2.95147706 0.0293884219,3.09173583 0.140808094,3.16168214 C0.18621825,3.19015502 0.239959711,3.20727539 0.299011219,3.20727539 L9.036438,3.20727539 C9.09548951,3.20727539 9.14932252,3.19015502 9.19464113,3.16159057 C9.3060608,3.09164428 9.36575318,2.95138549 9.31988527,2.81396484 Z" id="Path" fill="#FFFFFF"></path>
                    </g>
                </g>
            </g>
        </g>
    </g>
</svg>