<?xml version="1.0" encoding="UTF-8"?>
<svg width="30px" height="30px" viewBox="0 0 30 30" version="1.1" xmlns="http://www.w3.org/2000/svg" xmlns:xlink="http://www.w3.org/1999/xlink">
    <title>C0613B9A-B01A-4011-AFC5-1946B023F21C</title>
    <g id="Page-1" stroke="none" stroke-width="1" fill="none" fill-rule="evenodd">
        <g id="14c-Security-Update" transform="translate(-1363.000000, -211.000000)">
            <g id="Apps-Copy" transform="translate(782.000000, 205.000000)">
                <g id="c" transform="translate(581.000000, 6.000000)">
                    <rect id="Rectangle" fill="#109AD6" x="0" y="0" width="30" height="30" rx="15"></rect>
                    <path d="M10.6,17.25 L10.6,19.5 L19.4,19.5 L19.4,17.25 L21,17.25 L21,20.25 C21,20.66475 20.6424,21 20.2,21 L20.2,21 L9.8,21 C9.3584,21 9,20.66475 9,20.25 L9,20.25 L9,17.25 L10.6,17.25 Z M15,9 C15.1152,9 15.2248,9.04725 15.3008,9.12825 L18.1008,12.12825 C18.2048,12.2385 18.2288,12.396 18.164,12.53025 C18.0992,12.6645 17.9568,12.75 17.8,12.75 L16.2,12.75 L16.2,17.625 C16.2,17.832 16.0208,18 15.8,18 L14.2,18 C13.9792,18 13.8,17.832 13.8,17.625 L13.8,12.75 L12.2,12.75 C12.0432,12.75 11.9008,12.66375 11.836,12.53025 C11.7704,12.396 11.796,12.23925 11.8992,12.12825 L14.6992,9.12825 C14.7752,9.0465 14.8848,9 15,9 Z" id="Combined-Shape" fill="#FFFFFF" fill-rule="nonzero"></path>
                </g>
            </g>
        </g>
    </g>
</svg>